<?xml version="1.0" encoding="utf-8"?>
<!-- Generator: Adobe Illustrator 16.0.0, SVG Export Plug-In . SVG Version: 6.00 Build 0)  -->
<!DOCTYPE svg PUBLIC "-//W3C//DTD SVG 1.1//EN" "http://www.w3.org/Graphics/SVG/1.1/DTD/svg11.dtd">
<svg version="1.1" id="Capa_1" xmlns="http://www.w3.org/2000/svg" xmlns:xlink="http://www.w3.org/1999/xlink" x="0px" y="0px"
	 width="1140px" height="1475.294px" viewBox="-264 -341.647 1140 1475.294" enable-background="new -264 -341.647 1140 1475.294"
	 xml:space="preserve">
<g>
	<g>
		<path stroke="#636363" stroke-linecap="round" stroke-linejoin="round" stroke-miterlimit="10" d="M-229.414-321.093
			c0-6.354-5.139-11.494-11.495-11.494c-6.354,0-11.494,5.139-11.494,11.494c0,2.533,0.819,4.866,2.21,6.753v13.728h24.477
			l-10.923-9.806C-232.392-312.13-229.414-316.276-229.414-321.093z"/>
		<path stroke="#636363" stroke-linecap="round" stroke-linejoin="round" stroke-miterlimit="10" d="M-111.916-300.612
			l-10.924-9.806c4.221-1.688,7.2-5.834,7.2-10.65c0-6.356-5.14-11.494-11.494-11.494c-6.355,0-11.495,5.138-11.495,11.494
			c0,2.532,0.82,4.866,2.209,6.752v13.729L-111.916-300.612L-111.916-300.612z"/>
		<path stroke="#636363" stroke-linecap="round" stroke-linejoin="round" stroke-miterlimit="10" d="M-214.741-323.599
			c-6.355,0-11.494,5.138-11.494,11.494s5.139,11.494,11.494,11.494h13.678v-21.995l-3.376,5.438
			C-206.326-320.993-210.224-323.599-214.741-323.599z"/>
		<path stroke="#636363" stroke-linecap="round" stroke-linejoin="round" stroke-miterlimit="10" d="M-156.9-323.625
			c-6.355,0-11.494,5.14-11.494,11.495c0,6.354,5.139,11.494,11.494,11.494h13.679v-21.996l-3.376,5.437
			C-148.459-320.993-152.381-323.625-156.9-323.625z"/>
		<path stroke="#636363" stroke-linecap="round" stroke-linejoin="round" stroke-miterlimit="10" d="M-184.084-323.45
			c-0.595-0.1-1.216-0.149-1.836-0.149c-6.355,0-11.494,5.138-11.494,11.494s5.139,11.494,11.494,11.494
			c4.543,0,8.465-2.631,10.327-6.48l3.353,6.456v-31.082h-16.137L-184.084-323.45z"/>
	</g>
	<g>
		<g>
			<path fill="#E61414" d="M-236.638-310.442c4.22-1.688,7.199-5.834,7.199-10.65c0-6.354-5.138-11.494-11.494-11.494
				c-6.355,0-11.47,5.139-11.47,11.494c0,2.533,0.819,4.866,2.21,6.753v-8.292L-236.638-310.442z"/>
			<path fill="#002F9B" d="M-240.908-309.598c-3.822,0-7.199-1.862-9.283-4.742v13.728h24.477l-10.923-9.806
				C-237.953-309.896-239.393-309.598-240.908-309.598z"/>
			<path d="M-240.908-309.598c1.515,0,2.955-0.298,4.271-0.819l-13.579-12.189v8.292
				C-248.107-311.485-244.73-309.598-240.908-309.598z"/>
			<path fill="#E61414" d="M-122.814-310.442c4.22-1.688,7.199-5.834,7.199-10.65c0-6.354-5.139-11.494-11.494-11.494
				c-6.356,0-11.494,5.139-11.494,11.494c0,2.533,0.819,4.866,2.209,6.753v-8.292L-122.814-310.442z"/>
			<path fill="#002F9B" d="M-111.916-300.612l-10.924-9.806c-1.316,0.521-2.756,0.819-4.27,0.819c-3.823,0-7.199-1.862-9.285-4.742
				v13.728H-111.916z"/>
			<path d="M-127.109-309.598c1.514,0,2.954-0.298,4.27-0.819l-13.58-12.189v8.292
				C-134.309-311.485-130.932-309.598-127.109-309.598z"/>
			<path fill="#E61414" d="M-214.741-323.599c-6.355,0-11.494,5.138-11.494,11.494s5.139,11.494,11.494,11.494l10.302-16.558
				C-206.326-320.993-210.224-323.599-214.741-323.599z"/>
			<path fill="#002F9B" d="M-203.248-312.13c0,6.354-5.138,11.494-11.493,11.494h13.678v-21.996l-3.376,5.437
				C-203.694-315.68-203.248-313.943-203.248-312.13z"/>
			<path d="M-203.248-312.13c0-1.813-0.421-3.55-1.191-5.065l-10.302,16.559C-208.411-300.635-203.248-305.776-203.248-312.13z"/>
			<path fill="#E61414" d="M-156.9-323.625c-6.355,0-11.494,5.14-11.494,11.495c0,6.354,5.139,11.494,11.494,11.494l10.303-16.559
				C-148.459-320.993-152.381-323.625-156.9-323.625z"/>
			<path fill="#002F9B" d="M-145.406-312.13c0,6.354-5.138,11.494-11.494,11.494h13.679v-21.996l-3.376,5.437
				C-145.827-315.68-145.406-313.943-145.406-312.13z"/>
			<path d="M-145.406-312.13c0-1.813-0.421-3.55-1.191-5.065l-10.303,16.559C-150.544-300.635-145.406-305.776-145.406-312.13z"/>
			<path fill="#E61414" d="M-185.92-323.599c-6.355,0-11.494,5.138-11.494,11.494s5.139,11.494,11.494,11.494
				c4.543,0,8.465-2.631,10.327-6.48l-8.491-16.359C-184.679-323.55-185.3-323.599-185.92-323.599z"/>
			<path fill="#002F9B" d="M-184.084-323.45c5.462,0.869,9.657,5.61,9.657,11.345c0,1.787-0.422,3.5-1.141,5.014l3.352,6.456
				v-31.082h-16.137L-184.084-323.45z"/>
			<path d="M-184.084-323.45l8.491,16.359c0.745-1.514,1.142-3.227,1.142-5.014C-174.427-317.815-178.622-322.556-184.084-323.45z"
				/>
		</g>
	</g>
</g>
</svg>
